<svg xmlns="http://www.w3.org/2000/svg" viewBox="0 0 24 24" fill="none">
  <circle cx="12" cy="12" r="11" fill="#1a1a2e" stroke="#4f46e5" stroke-width="1.5"/>
  <path d="M12 4.5C9.5 4.5 7.5 6.5 7.5 9v1H6.5A1.5 1.5 0 0 0 5 11.5v6A1.5 1.5 0 0 0 6.5 19h11a1.5 1.5 0 0 0 1.5-1.5v-6A1.5 1.5 0 0 0 17.5 10H16.5V9c0-2.5-2-4.5-4.5-4.5zm0 1.5c1.7 0 3 1.3 3 3v1H9V9c0-1.7 1.3-3 3-3z" fill="#818cf8"/>
  <circle cx="12" cy="14.5" r="1.5" fill="#4ade80"/>
  <rect x="11.25" y="14.5" width="1.5" height="2.5" rx="0.5" fill="#4ade80"/>
</svg>
